<svg viewBox="0 0 255 206" fill="none" xmlns="http://www.w3.org/2000/svg">
<path opacity="0.1" d="M157.045 33.2952C146.103 42.5668 131.911 41.967 119.474 37.1423C107.037 32.3175 95.6125 23.7308 83.4948 17.6261C73.3361 12.5086 62.6758 9.14803 51.8854 7.65315C36.4415 5.51355 19.1948 8.12546 8.43512 23.1074C-3.54766 39.799 -2.62736 69.9045 10.3278 85.217C16.9212 93.0103 25.554 96.836 33.082 102.929C40.61 109.022 47.582 119.12 46.9409 130.866C46.3471 141.73 39.446 150.083 32.3037 155.318C26.7843 159.364 19.9873 163.782 19.3225 172.163C18.679 180.271 24.3948 186.626 29.8527 190.239C47.6577 202.026 69.5981 201.912 87.3416 189.941C93.6678 185.669 99.4782 179.987 106.114 176.662C123.538 167.924 142.739 176.719 161.19 179.938C176.804 182.661 192.818 181.248 208.033 175.81C217.17 172.544 226.342 167.544 232.76 158.249C237.39 151.542 240.274 143.052 242.981 134.669C245.867 125.731 248.642 116.728 251.306 107.662C252.903 102.218 254.476 96.6707 254.89 90.8494C255.638 80.2978 252.486 69.8667 248.195 60.9636C238.005 39.8203 220.844 24.9541 202.258 21.1779C183.672 17.4018 164.01 24.777 149.595 40.9161" fill="#216BCD"/>
<g clip-path="url(#clip0)">
<g opacity="0.5">
<path opacity="0.5" d="M122.442 49.9125C133.903 49.9125 143.193 40.6244 143.193 29.167C143.193 17.7095 133.903 8.42139 122.442 8.42139C110.981 8.42139 101.69 17.7095 101.69 29.167C101.69 40.6244 110.981 49.9125 122.442 49.9125Z" fill="url(#paint0_linear)"/>
</g>
<path d="M122.483 49.3412C133.701 49.3412 142.795 40.2499 142.795 29.0351C142.795 17.8204 133.701 8.729 122.483 8.729C111.265 8.729 102.171 17.8204 102.171 29.0351C102.171 40.2499 111.265 49.3412 122.483 49.3412Z" fill="#F5F5F5"/>
<g opacity="0.5">
<path opacity="0.5" d="M210.319 51.393C221.78 51.393 231.071 42.1049 231.071 30.6474C231.071 19.19 221.78 9.90186 210.319 9.90186C198.859 9.90186 189.568 19.19 189.568 30.6474C189.568 42.1049 198.859 51.393 210.319 51.393Z" fill="url(#paint1_linear)"/>
</g>
<path d="M210.361 50.8217C221.579 50.8217 230.673 41.7303 230.673 30.5156C230.673 19.3008 221.579 10.2095 210.361 10.2095C199.143 10.2095 190.049 19.3008 190.049 30.5156C190.049 41.7303 199.143 50.8217 210.361 50.8217Z" fill="#F5F5F5"/>
<g opacity="0.5">
<path opacity="0.5" d="M166.385 85.4267C177.845 85.4267 187.136 76.1386 187.136 64.6811C187.136 53.2237 177.845 43.9355 166.385 43.9355C154.924 43.9355 145.633 53.2237 145.633 64.6811C145.633 76.1386 154.924 85.4267 166.385 85.4267Z" fill="url(#paint2_linear)"/>
</g>
<path d="M166.385 84.8747C177.603 84.8747 186.697 75.7833 186.697 64.5686C186.697 53.3538 177.603 44.2625 166.385 44.2625C155.167 44.2625 146.073 53.3538 146.073 64.5686C146.073 75.7833 155.167 84.8747 166.385 84.8747Z" fill="#F5F5F5"/>
<path d="M166.385 45.7731C170.126 45.7731 173.782 46.882 176.893 48.9597C180.003 51.0373 182.427 53.9904 183.859 57.4453C185.29 60.9003 185.665 64.7021 184.935 68.3699C184.205 72.0377 182.404 75.4068 179.759 78.0512C177.114 80.6955 173.743 82.4963 170.075 83.2259C166.406 83.9554 162.603 83.581 159.147 82.1499C155.691 80.7188 152.737 78.2953 150.659 75.1859C148.581 72.0765 147.471 68.4208 147.471 64.6811C147.471 59.6664 149.464 54.8571 153.011 51.3111C156.558 47.7652 161.369 45.7731 166.385 45.7731ZM166.385 41.1038C161.72 41.1038 157.161 42.4866 153.282 45.0773C149.404 47.668 146.381 51.3503 144.596 55.6585C142.811 59.9667 142.344 64.7073 143.254 69.2809C144.164 73.8544 146.41 78.0555 149.708 81.3529C153.007 84.6502 157.209 86.8957 161.784 87.8055C166.359 88.7152 171.101 88.2483 175.41 86.4638C179.719 84.6793 183.403 81.6573 185.994 77.78C188.586 73.9027 189.969 69.3443 189.969 64.6811C189.962 58.4303 187.475 52.4375 183.053 48.0174C178.632 43.5974 172.637 41.111 166.385 41.1038Z" fill="#CCCCCC"/>
<path d="M168.421 35.5913H162.893V41.4087H168.421V35.5913Z" fill="#CCCCCC"/>
<path d="M178.279 37.9512L175.282 42.9377L180.021 45.784L183.018 40.7975L178.279 37.9512Z" fill="#CCCCCC"/>
<path d="M190.055 47.4765L184.965 50.2969L187.645 55.1303L192.735 52.3099L190.055 47.4765Z" fill="#CCCCCC"/>
<path d="M187.978 73.9548L185.048 78.6414L189.983 81.7241L192.913 77.0376L187.978 73.9548Z" fill="#CCCCCC"/>
<path d="M142.711 47.4776L140.031 52.311L145.121 55.1314L147.801 50.298L142.711 47.4776Z" fill="#CCCCCC"/>
<path d="M144.793 73.9558L139.858 77.0386L142.788 81.7251L147.722 78.6424L144.793 73.9558Z" fill="#CCCCCC"/>
<path d="M154.486 37.9496L149.748 40.7959L152.745 45.7824L157.483 42.9362L154.486 37.9496Z" fill="#CCCCCC"/>
<path d="M168.421 87.9509H162.893V93.7684H168.421V87.9509Z" fill="#CCCCCC"/>
<path d="M180.021 83.5795L175.282 86.4258L178.279 91.4123L183.018 88.5661L180.021 83.5795Z" fill="#CCCCCC"/>
<path d="M154.007 83.5524L150.981 88.5554L155.735 91.4291L158.761 86.4261L154.007 83.5524Z" fill="#CCCCCC"/>
<path d="M143.397 62.3547H136.704V67.2987H143.397V62.3547Z" fill="#CCCCCC"/>
<path d="M189.37 67.2961H196.063V62.3521H189.37V67.2961Z" fill="#CCCCCC"/>
<path d="M210.319 11.7392C214.06 11.7392 217.717 12.8481 220.827 14.9257C223.937 17.0034 226.362 19.9564 227.793 23.4114C229.225 26.8664 229.599 30.6682 228.869 34.336C228.14 38.0038 226.338 41.3729 223.693 44.0172C221.048 46.6616 217.678 48.4624 214.009 49.1919C210.34 49.9215 206.537 49.5471 203.081 48.116C199.625 46.6849 196.672 44.2614 194.593 41.152C192.515 38.0425 191.406 34.3869 191.406 30.6472C191.406 25.6325 193.399 20.8231 196.945 17.2772C200.492 13.7312 205.303 11.7392 210.319 11.7392ZM210.319 7.06982C205.655 7.06982 201.095 8.45261 197.217 11.0433C193.338 13.634 190.315 17.3163 188.53 21.6245C186.745 25.9327 186.278 30.6734 187.188 35.2469C188.098 39.8205 190.345 44.0216 193.643 47.3189C196.941 50.6163 201.143 52.8618 205.718 53.7715C210.293 54.6813 215.035 54.2144 219.345 52.4299C223.654 50.6454 227.337 47.6234 229.929 43.7461C232.52 39.8688 233.903 35.3104 233.903 30.6472C233.896 24.3963 231.409 18.4036 226.988 13.9835C222.567 9.56347 216.572 7.07709 210.319 7.06982Z" fill="#CCCCCC"/>
<path d="M212.355 1.55737H206.827V7.37481H212.355V1.55737Z" fill="#CCCCCC"/>
<path d="M222.215 3.91558L219.218 8.9021L223.956 11.7484L226.953 6.76183L222.215 3.91558Z" fill="#CCCCCC"/>
<path d="M233.992 13.4436L228.903 16.2639L231.583 21.0973L236.672 18.277L233.992 13.4436Z" fill="#CCCCCC"/>
<path d="M231.912 39.9226L228.982 44.6091L233.917 47.6919L236.846 43.0053L231.912 39.9226Z" fill="#CCCCCC"/>
<path d="M186.65 13.443L183.97 18.2764L189.06 21.0967L191.74 16.2633L186.65 13.443Z" fill="#CCCCCC"/>
<path d="M188.727 39.9216L183.793 43.0044L186.722 47.691L191.657 44.6082L188.727 39.9216Z" fill="#CCCCCC"/>
<path d="M198.423 3.91376L193.685 6.76001L196.682 11.7465L201.42 8.90028L198.423 3.91376Z" fill="#CCCCCC"/>
<path d="M212.355 53.917H206.827V59.7344H212.355V53.917Z" fill="#CCCCCC"/>
<path d="M223.958 49.5466L219.22 52.3928L222.217 57.3794L226.955 54.5331L223.958 49.5466Z" fill="#CCCCCC"/>
<path d="M198.064 49.2233L195.038 54.2263L199.792 57.1L202.818 52.097L198.064 49.2233Z" fill="#CCCCCC"/>
<path d="M187.334 28.3208H180.641V33.2648H187.334V28.3208Z" fill="#CCCCCC"/>
<path d="M233.307 33.2649H240V28.3209H233.307V33.2649Z" fill="#CCCCCC"/>
<path d="M122.436 10.2836C122.658 10.2836 122.881 10.2836 123.104 10.2836C128.062 10.4526 132.754 12.5619 136.171 16.157C139.588 19.7521 141.455 24.5452 141.37 29.5034C141.285 34.4617 139.256 39.1883 135.718 42.6647C132.181 46.141 127.419 48.089 122.458 48.0887C122.237 48.0887 122.014 48.0887 121.791 48.0887C116.833 47.9197 112.141 45.8104 108.724 42.2153C105.307 38.6202 103.44 33.8271 103.525 28.8689C103.609 23.9106 105.639 19.184 109.177 15.7076C112.714 12.2313 117.476 10.2833 122.436 10.2836ZM122.436 5.61426C116.251 5.61422 110.314 8.04331 105.903 12.3782C101.492 16.713 98.9611 22.6067 98.8556 28.7892C98.75 34.9717 101.078 40.9483 105.338 45.4311C109.599 49.914 115.45 52.5443 121.631 52.7553C121.906 52.7553 122.181 52.769 122.456 52.769C128.628 52.7511 134.548 50.3145 138.944 45.9821C143.34 41.6498 145.862 35.7671 145.968 29.597C146.074 23.4268 143.756 17.461 139.512 12.9802C135.267 8.49935 129.435 5.86073 123.266 5.63074C122.991 5.63074 122.717 5.617 122.442 5.617L122.436 5.61426Z" fill="#CCCCCC"/>
<path d="M119.972 0.000523077L119.77 5.81445L125.295 6.00635L125.497 0.192424L119.972 0.000523077Z" fill="#CCCCCC"/>
<path d="M135.267 2.89251L132.099 7.77197L136.735 10.781L139.904 5.90153L135.267 2.89251Z" fill="#CCCCCC"/>
<path d="M146.703 12.8263L141.519 15.4683L144.029 20.3918L149.214 17.7498L146.703 12.8263Z" fill="#CCCCCC"/>
<path d="M143.709 39.2156L140.619 43.7976L145.444 47.0498L148.534 42.4678L143.709 39.2156Z" fill="#CCCCCC"/>
<path d="M99.3881 11.1805L96.5419 15.918L101.53 18.9133L104.377 14.1758L99.3881 11.1805Z" fill="#CCCCCC"/>
<path d="M101.103 37.9802L96.0401 40.8889L98.804 45.6968L103.867 42.7881L101.103 37.9802Z" fill="#CCCCCC"/>
<path d="M111.488 2.07069L106.654 4.75073L109.476 9.83829L114.31 7.15824L111.488 2.07069Z" fill="#CCCCCC"/>
<path d="M118.155 52.3306L117.953 58.1445L123.478 58.3364L123.68 52.5225L118.155 52.3306Z" fill="#CCCCCC"/>
<path d="M135.421 48.5595L130.587 51.2395L133.409 56.3271L138.243 53.647L135.421 48.5595Z" fill="#CCCCCC"/>
<path d="M108.164 47.6081L104.996 52.4875L109.632 55.4966L112.801 50.6171L108.164 47.6081Z" fill="#CCCCCC"/>
<path d="M99.5514 26.0715L92.8626 25.8391L92.6909 30.7801L99.3797 31.0125L99.5514 26.0715Z" fill="#CCCCCC"/>
<path d="M145.329 32.5977L152.018 32.8301L152.189 27.8891L145.501 27.6567L145.329 32.5977Z" fill="#CCCCCC"/>
<g opacity="0.5">
<path opacity="0.5" d="M33.331 120.598C43.455 120.598 51.662 112.393 51.662 102.272C51.662 92.151 43.455 83.9463 33.331 83.9463C23.2071 83.9463 15 92.151 15 102.272C15 112.393 23.2071 120.598 33.331 120.598Z" fill="url(#paint3_linear)"/>
</g>
<path d="M33.3667 120.095C43.2767 120.095 51.3103 112.064 51.3103 102.157C51.3103 92.2496 43.2767 84.2183 33.3667 84.2183C23.4567 84.2183 15.4231 92.2496 15.4231 102.157C15.4231 112.064 23.4567 120.095 33.3667 120.095Z" fill="#E6E6E6"/>
<path d="M33.3805 120.167C36.8867 120.173 40.317 119.147 43.2439 117.217C42.5817 113.605 40.0651 113.399 40.0651 113.399H26.1904C26.1904 113.399 23.8166 113.594 23.0748 116.917C26.092 119.039 29.6921 120.174 33.3805 120.167Z" fill="#CCCCCC"/>
<path d="M33.1937 110.438C37.978 110.438 41.8564 106.561 41.8564 101.778C41.8564 96.9948 37.978 93.1174 33.1937 93.1174C28.4094 93.1174 24.5309 96.9948 24.5309 101.778C24.5309 106.561 28.4094 110.438 33.1937 110.438Z" fill="#CCCCCC"/>
<path opacity="0.1" d="M30.3857 108.99H35.9356V113.583C35.9356 114.278 35.6595 114.944 35.1679 115.436C34.6764 115.927 34.0097 116.203 33.3145 116.203H33.0178C32.6727 116.205 32.3307 116.138 32.0114 116.007C31.6921 115.876 31.4019 115.683 31.1573 115.44C30.9128 115.196 30.7187 114.907 30.5863 114.588C30.4539 114.27 30.3857 113.928 30.3857 113.583V108.99Z" fill="black"/>
<path d="M30.5643 108.784H35.7845C35.8282 108.784 35.8701 108.802 35.9011 108.833C35.932 108.864 35.9493 108.906 35.9493 108.949V113.377C35.9493 114.072 35.6732 114.738 35.1816 115.23C34.6901 115.721 34.0234 115.997 33.3283 115.997H33.0178C32.6727 115.999 32.3307 115.932 32.0114 115.801C31.6921 115.67 31.4019 115.477 31.1573 115.234C30.9128 114.99 30.7187 114.701 30.5863 114.382C30.4539 114.064 30.3857 113.722 30.3857 113.377V108.949C30.3857 108.906 30.4031 108.864 30.434 108.833C30.4649 108.802 30.5069 108.784 30.5506 108.784H30.5643Z" fill="#CCCCCC"/>
<path opacity="0.1" d="M30.4077 111.083C32.1962 111.752 34.1651 111.758 35.9575 111.1V110.416H30.4077V111.083Z" fill="black"/>
<path d="M33.1936 111.454C37.5864 111.454 41.1475 107.894 41.1475 103.503C41.1475 99.1111 37.5864 95.551 33.1936 95.551C28.8008 95.551 25.2397 99.1111 25.2397 103.503C25.2397 107.894 28.8008 111.454 33.1936 111.454Z" fill="#CCCCCC"/>
<path opacity="0.1" d="M27.5283 96.2706C27.5283 96.2706 30.8802 103.074 40.3369 99.1217L38.139 95.6691L34.2349 94.2683L27.5283 96.2706Z" fill="black"/>
<path d="M27.5283 96.1691C27.5283 96.1691 30.8802 102.973 40.3369 99.0201L38.139 95.5676L34.2349 94.1667L27.5283 96.1691Z" fill="#CCCCCC"/>
<path d="M27.4927 95.7103C27.7192 95.0109 28.1102 94.376 28.6329 93.859C30.1989 92.3126 32.7541 91.9858 34.0783 90.2224C34.15 90.3473 34.1948 90.4857 34.2096 90.6289C34.2245 90.7721 34.2092 90.9169 34.1646 91.0538C34.1201 91.1907 34.0474 91.3167 33.9511 91.4238C33.8548 91.5309 33.7372 91.6166 33.6058 91.6754C34.8641 91.6754 36.3285 91.5573 37.0401 90.519C37.2161 90.929 37.2721 91.3805 37.2016 91.821C37.1311 92.2615 36.9369 92.673 36.6417 93.0075C37.7599 93.057 38.9523 93.8151 39.0237 94.9302C39.0732 95.6745 38.6061 96.3777 37.9934 96.8034C37.3589 97.1974 36.6532 97.4634 35.9164 97.5862C33.7981 98.0559 26.119 100.017 27.4927 95.7103Z" fill="#CCCCCC"/>
<path d="M25.2342 104.884C25.6424 104.884 25.9733 104.263 25.9733 103.497C25.9733 102.731 25.6424 102.11 25.2342 102.11C24.8261 102.11 24.4952 102.731 24.4952 103.497C24.4952 104.263 24.8261 104.884 25.2342 104.884Z" fill="#CCCCCC"/>
<path d="M41.1475 104.884C41.5557 104.884 41.8866 104.263 41.8866 103.497C41.8866 102.731 41.5557 102.11 41.1475 102.11C40.7393 102.11 40.4084 102.731 40.4084 103.497C40.4084 104.263 40.7393 104.884 41.1475 104.884Z" fill="#CCCCCC"/>
<g opacity="0.5">
<path opacity="0.5" d="M36.2405 118.854C46.3644 118.854 54.5715 110.649 54.5715 100.528C54.5715 90.4069 46.3644 82.2021 36.2405 82.2021C26.1166 82.2021 17.9095 90.4069 17.9095 100.528C17.9095 110.649 26.1166 118.854 36.2405 118.854Z" fill="url(#paint4_linear)"/>
</g>
<path d="M36.2764 118.348C46.1864 118.348 54.22 110.317 54.22 100.41C54.22 90.5028 46.1864 82.4714 36.2764 82.4714C26.3664 82.4714 18.3328 90.5028 18.3328 100.41C18.3328 110.317 26.3664 118.348 36.2764 118.348Z" fill="#F5F5F5"/>
<path d="M44.057 103.137C44.4652 103.137 44.7961 102.516 44.7961 101.75C44.7961 100.984 44.4652 100.363 44.057 100.363C43.6488 100.363 43.3179 100.984 43.3179 101.75C43.3179 102.516 43.6488 103.137 44.057 103.137Z" fill="#CCCCCC"/>
<path d="M104.421 37.9424V38.8213L101.949 38.6016V44.0949L95.4784 53.5737L95.08 53.3402L94.2008 54.4389L102.561 59.718V57.7376L102.091 57.4629C102.677 55.2793 105.072 46.5724 106.441 45.4216C106.441 45.4216 108.913 43.6609 110.249 41.2411C111.584 38.8213 110.914 30.4632 104.421 37.9424Z" fill="url(#paint5_linear)"/>
<path d="M91.3298 58.6909C91.3298 58.6909 82.3676 56.7984 77.4497 54.8043C75.1547 53.8677 72.7122 53.3442 70.2349 53.258L64.8581 53.0822L62.1793 51.4754L63.0036 49.3137C63.086 49.278 63.1684 49.2396 63.2508 49.1929L63.3278 48.7287C63.7573 48.6227 64.1809 48.4943 64.5971 48.3442C64.5359 48.8677 64.6002 49.3983 64.7846 49.8921C64.969 50.3859 65.2682 50.8288 65.6576 51.1842C65.9661 51.5272 66.3437 51.8009 66.7656 51.9875C67.1876 52.174 67.6442 52.2691 68.1056 52.2664C68.5627 52.268 69.0151 52.1746 69.4341 51.992C69.8531 51.8095 70.2296 51.5418 70.5396 51.206C70.8497 50.8703 71.0865 50.4737 71.235 50.0416C71.3836 49.6094 71.4406 49.1511 71.4025 48.6957L71.0179 43.8451L70.8228 43.9468L70.7981 43.6227L70.7266 43.6611C72.2146 41.5526 73.0313 39.0442 73.07 36.464C73.1088 33.8839 72.3677 31.3521 70.9437 29.1999L71.1525 29.0076V23.6654C71.0811 23.5967 71.0069 23.5335 70.9327 23.4704V23.4456C66.4983 19.3256 60.4045 19.6497 55.9975 20.699C54.3641 21.0856 52.8912 21.9702 51.7827 23.2305C50.6743 24.4907 49.985 26.0642 49.8103 27.7332C43.928 29.3372 45.8924 32.4217 45.799 33.6138C45.3429 39.423 47.2139 42.8398 49.2471 44.8174C50.0921 45.6875 51.0799 46.4065 52.1676 46.9434L50.879 49.517L50.5026 49.5033L49.4723 52.574H49.4229L36.661 61.215L27.8444 70.9382C27.4615 71.3608 27.2141 71.8883 27.1342 72.4528C27.0542 73.0173 27.1454 73.5928 27.396 74.1049C27.6465 74.6171 28.0449 75.0424 28.5396 75.3259C29.0344 75.6095 29.6028 75.7382 30.1715 75.6955L39.1914 75.0143C39.1914 75.0143 45.571 87.4952 43.5873 99.976C42.9224 104.17 43.1999 106.736 43.862 108.298C43.6781 109.989 43.2139 111.636 42.4883 113.174C40.0678 118.233 40.0678 123.512 43.1477 129.67L44.0269 161.564C44.0269 161.564 45.1259 176.523 44.0269 179.602C42.9279 182.681 44.4665 197.419 44.4665 197.419H44.2522V205.561L60.7369 206C60.7369 206 64.5833 204.176 65.273 202.797L73.5593 205.344C73.5593 205.344 82.6753 203.773 77.3425 201.603C73.3615 199.982 72.3724 197.672 72.1224 196.601L85.1535 159.145C85.1535 159.145 82.733 127.25 73.9329 116.25L73.04 109.765H73.1636L75.0347 71.8941L75.1885 71.9161L75.1446 71.9298C81.362 72.8692 86.3569 72.372 89.6676 71.7046C91.1044 71.4483 92.5131 71.0537 93.8739 70.5262L94.1212 70.4274H94.1514H94.1734C95.1943 70.0098 96.1567 69.4613 97.0363 68.7958L102.531 60.3938L94.1707 54.6258L91.3298 58.6909ZM56.7861 187.51L60.9677 158.255V143.307L68.449 158.925L60.399 192.769L59.9759 192.651L58.1186 199.317C57.5119 198.816 57.0515 198.16 56.7861 197.419V187.51Z" fill="url(#paint6_linear)"/>
<path d="M38.3672 63.448C38.3672 63.448 25.9514 66.3677 28.1439 84.254C28.1439 84.254 32.636 82.6664 34.2048 82.4851C35.6939 82.3121 40.1942 82.7955 40.1942 82.7955L42.329 74.7093L38.3672 63.448Z" fill="#535461"/>
<path d="M100.575 41.9635V47.2151L94.319 56.378L100.575 60.4458C100.575 60.4458 103.355 49.7338 104.853 48.4731C104.853 48.4731 107.207 46.7921 108.49 44.4822C109.773 42.1722 109.133 34.1904 102.927 41.3318V42.1722L100.575 41.9635Z" fill="#FDA57D"/>
<path d="M50.7719 54.4858L53.2446 49.5418C53.3174 49.3965 53.4275 49.2731 53.5636 49.1843C53.6998 49.0955 53.857 49.0445 54.0194 49.0364L63.4267 48.5557C63.5796 48.5477 63.7321 48.5781 63.8703 48.6441C64.0084 48.71 64.1279 48.8096 64.2178 48.9335C64.3076 49.0575 64.365 49.2019 64.3847 49.3538C64.4044 49.5056 64.3858 49.6599 64.3306 49.8027L61.9046 56.0733C61.8327 56.2588 61.7024 56.4159 61.5334 56.5209C61.3645 56.626 61.1659 56.6732 60.9677 56.6556L51.511 55.8151C51.3613 55.8022 51.2171 55.7527 51.0911 55.6711C50.965 55.5894 50.8609 55.4781 50.788 55.3468C50.715 55.2156 50.6754 55.0684 50.6726 54.9183C50.6698 54.7682 50.7039 54.6196 50.7719 54.4858Z" fill="#FDA57D"/>
<path d="M51.4697 52.3596L49.8735 57.0454L66.2813 56.4577L59.9786 52.6755L51.4697 52.3596Z" fill="#EDEEF9"/>
<path d="M93.1733 57.0868L94.014 56.0376L101.155 60.2372V62.127L93.1733 57.0868Z" fill="#EDEEF9"/>
<path d="M44.9087 103.549C44.9087 103.549 46.1094 108.331 43.8098 113.163C41.5101 117.994 41.4991 123.034 44.4389 128.915L45.2796 159.37C45.2796 159.37 46.3292 173.652 45.2796 176.591C44.2301 179.53 45.7 193.604 45.7 193.604H57.4646V184.156L61.4566 156.222V141.939L68.6 156.851L60.3989 191.297L71.1139 195.708L84.56 157.063C84.56 157.063 82.2494 126.608 73.8449 116.107L72.2761 104.648L44.9087 103.549Z" fill="#216BCD"/>
<path d="M45.483 201.38V193.607H57.4592C57.4592 193.607 58.2999 196.757 63.7619 197.386C69.2238 198.015 61.2397 201.798 61.2397 201.798L45.483 201.38Z" fill="#333333"/>
<path d="M58.4152 196.54L60.5005 189.053L72.0399 192.264C72.0399 192.264 72.0041 195.524 77.0979 197.595C82.1917 199.666 73.485 201.166 73.485 201.166L58.4152 196.54Z" fill="#333333"/>
<path opacity="0.1" d="M72.2761 105.288L44.9169 104.189C45.255 105.82 45.3246 107.494 45.123 109.147C46.3758 112.091 49.0601 111.284 49.0601 111.284L72.9987 110.548L72.2761 105.288Z" fill="black"/>
<path d="M50.4201 55.3015L38.2352 63.5415L40.6502 76.7255C40.6502 76.7255 46.744 88.6433 44.851 100.561C42.958 112.479 49.0519 110.644 49.0519 110.644L73.1004 109.911L74.8862 73.7509C74.8862 73.7509 89.39 75.8081 95.9042 70.7707L101.157 62.7505L93.1733 57.2571L90.4423 61.1519C90.4423 61.1519 81.8922 59.3281 77.1886 57.4329C74.9975 56.5393 72.6657 56.0399 70.3007 55.958L50.4201 55.3015Z" fill="#535461"/>
<path opacity="0.1" d="M50.629 113.481C50.629 113.481 49.1591 120.831 57.5608 133.015L50.629 113.481Z" fill="black"/>
<path opacity="0.1" d="M74.999 73.7838C74.999 73.7838 85.0822 70.4246 89.4946 70.4246C93.907 70.4246 93.1707 72.3308 93.1707 72.3308C93.1707 72.3308 86.1345 75.4647 74.999 73.7838Z" fill="black"/>
<path opacity="0.1" d="M63.564 48.9704L59.5527 49.4401C59.4263 49.4565 59.3109 49.6158 59.2422 49.863C60.1242 51.4534 61.2287 52.4037 62.4266 52.4037C62.8547 52.3983 63.2741 52.2819 63.6437 52.0659L63.9514 50.2091C64.0531 49.5966 63.8497 48.9347 63.564 48.9704Z" fill="black"/>
<path d="M60.7644 51.9917C67.5319 51.9917 73.018 46.5071 73.018 39.7416C73.018 32.976 67.5319 27.4915 60.7644 27.4915C53.9969 27.4915 48.5107 32.976 48.5107 39.7416C48.5107 46.5071 53.9969 51.9917 60.7644 51.9917Z" fill="#FDA57D"/>
<path opacity="0.1" d="M71.1773 27.7001V32.8034L70.5591 33.3692C70.2963 33.6096 70.0983 33.9123 69.9836 34.2495C69.8688 34.5866 69.841 34.9472 69.9026 35.298C69.9642 35.6487 70.1133 35.9783 70.3361 36.2561C70.5589 36.534 70.8482 36.7512 71.1773 36.8877C71.1773 36.8877 70.1552 45.0535 68.8804 48.116L71.0509 46.9679L71.419 51.5988C71.4535 52.0332 71.3977 52.4701 71.2552 52.8819C71.1126 53.2937 70.8863 53.6715 70.5906 53.9917C70.2949 54.3118 69.9361 54.5673 69.5368 54.7421C69.1375 54.917 68.7064 55.0073 68.2705 55.0074C67.7291 55.0073 67.1969 54.8682 66.7248 54.6034C66.2527 54.3386 65.8566 53.957 65.5745 53.4951C65.2923 53.0333 65.1336 52.5067 65.1135 51.9659C65.0934 51.4251 65.2127 50.8882 65.4598 50.4067C65.9791 49.396 66.8995 48.333 67.3501 46.8361C68.9985 41.3428 65.7016 42.37 64.924 43.3918C64.1465 44.4135 65.0504 47.0915 65.0504 47.0915C65.0504 47.0915 67.4764 51.5576 54.7118 50.5358C54.7118 50.5358 46.2881 48.7505 47.181 37.393C47.2717 36.2559 45.3951 33.3087 51.0109 31.7789C51.1775 30.1854 51.8355 28.683 52.8938 27.4799C53.9521 26.2767 55.3584 25.4322 56.918 25.0632C61.1326 24.0772 66.9517 23.7613 71.1773 27.7001Z" fill="black"/>
<path d="M70.9767 27.4913V32.5946L70.353 33.1604C70.0902 33.4008 69.8923 33.7035 69.7775 34.0407C69.6628 34.3778 69.6349 34.7384 69.6965 35.0892C69.7582 35.4399 69.9073 35.7695 70.1301 36.0474C70.3529 36.3252 70.6422 36.5424 70.9712 36.6789C70.9712 36.6789 69.9491 44.8447 68.6743 47.9073L70.8448 46.7592L71.213 51.39C71.2475 51.8244 71.1917 52.2613 71.0491 52.6731C70.9065 53.0849 70.6803 53.4628 70.3845 53.7829C70.0888 54.1031 69.73 54.3586 69.3307 54.5334C68.9314 54.7082 68.5003 54.7985 68.0644 54.7987C67.5231 54.7986 66.9908 54.6595 66.5188 54.3946C66.0467 54.1298 65.6506 53.7482 65.3684 53.2864C65.0863 52.8245 64.9275 52.2979 64.9075 51.7571C64.8874 51.2163 65.0066 50.6795 65.2537 50.198C65.773 49.1872 66.6934 48.1242 67.144 46.6273C68.7925 41.134 65.4955 42.1612 64.718 43.183C63.9405 44.2048 64.8444 46.8828 64.8444 46.8828C64.8444 46.8828 67.2704 51.3488 54.5057 50.3271C54.5057 50.3271 46.082 48.5417 46.9749 37.1843C47.0656 36.0471 45.1891 33.1 50.8049 31.5701C50.9715 29.9766 51.6295 28.4743 52.6878 27.2711C53.7461 26.0679 55.1523 25.2234 56.7119 24.8545C60.9238 23.8657 66.7429 23.5498 70.9767 27.4913Z" fill="#72351C"/>
</g>
<defs>
<linearGradient id="paint0_linear" x1="122.442" y1="49.9125" x2="122.442" y2="8.42413" gradientUnits="userSpaceOnUse">
<stop stop-color="#808080" stop-opacity="0.25"/>
<stop offset="0.54" stop-color="#808080" stop-opacity="0.12"/>
<stop offset="1" stop-color="#808080" stop-opacity="0.1"/>
</linearGradient>
<linearGradient id="paint1_linear" x1="29694.5" y1="7772.9" x2="29694.5" y2="1505.66" gradientUnits="userSpaceOnUse">
<stop stop-color="#808080" stop-opacity="0.25"/>
<stop offset="0.54" stop-color="#808080" stop-opacity="0.12"/>
<stop offset="1" stop-color="#808080" stop-opacity="0.1"/>
</linearGradient>
<linearGradient id="paint2_linear" x1="23013.8" y1="12948.1" x2="23013.8" y2="6680.86" gradientUnits="userSpaceOnUse">
<stop stop-color="#808080" stop-opacity="0.25"/>
<stop offset="0.54" stop-color="#808080" stop-opacity="0.12"/>
<stop offset="1" stop-color="#808080" stop-opacity="0.1"/>
</linearGradient>
<linearGradient id="paint3_linear" x1="2461.09" y1="16176.5" x2="2461.09" y2="11285.8" gradientUnits="userSpaceOnUse">
<stop stop-color="#808080" stop-opacity="0.25"/>
<stop offset="0.54" stop-color="#808080" stop-opacity="0.12"/>
<stop offset="1" stop-color="#808080" stop-opacity="0.1"/>
</linearGradient>
<linearGradient id="paint4_linear" x1="2852.25" y1="15942" x2="2852.25" y2="11051.3" gradientUnits="userSpaceOnUse">
<stop stop-color="#808080" stop-opacity="0.25"/>
<stop offset="0.54" stop-color="#808080" stop-opacity="0.12"/>
<stop offset="1" stop-color="#808080" stop-opacity="0.1"/>
</linearGradient>
<linearGradient id="paint5_linear" x1="8551.83" y1="7292.73" x2="8551.83" y2="5049.83" gradientUnits="userSpaceOnUse">
<stop stop-color="#808080" stop-opacity="0.25"/>
<stop offset="0.54" stop-color="#808080" stop-opacity="0.12"/>
<stop offset="1" stop-color="#808080" stop-opacity="0.1"/>
</linearGradient>
<linearGradient id="paint6_linear" x1="28074.7" y1="153453" x2="28074.7" y2="27520.8" gradientUnits="userSpaceOnUse">
<stop stop-color="#808080" stop-opacity="0.25"/>
<stop offset="0.54" stop-color="#808080" stop-opacity="0.12"/>
<stop offset="1" stop-color="#808080" stop-opacity="0.1"/>
</linearGradient>
<clipPath id="clip0">
<rect width="225" height="206" fill="white" transform="translate(15)"/>
</clipPath>
</defs>
</svg>
