<svg viewBox="0 0 44 44" xmlns="http://www.w3.org/2000/svg">
    <rect x="14.8496" y="16.8666" width="20.5333" height="7.69999" rx="1" />
    <path fill-rule="evenodd" clip-rule="evenodd" d="M16.1556 26.3004C13.7993 26.3004 11.8892 28.2106 11.8892 30.5669C11.8892 32.9232 13.7993 34.8333 16.1556 34.8333H34.9668C37.3231 34.8333 39.2333 32.9232 39.2333 30.5669C39.2333 28.2106 37.3231 26.3004 34.9668 26.3004H16.1556ZM17.1558 28.8604C16.1348 28.8604 15.307 29.6881 15.307 30.7092C15.307 31.7303 16.1348 32.558 17.1558 32.558H33.9663C34.9874 32.558 35.8151 31.7303 35.8151 30.7092C35.8151 29.6881 34.9874 28.8604 33.9663 28.8604H17.1558Z" />
    <rect x="12.645" y="12.1078" width="2.50489" height="13.0236" transform="rotate(-31.3287 12.645 12.1078)" />
    <rect x="14.5562" y="10.9557" width="2.50489" height="9.73264" transform="rotate(60.5937 14.5562 10.9557)" />
    <rect x="5.69141" y="9.16663" width="3.82173" height="21.2275" transform="rotate(6.46854 5.69141 9.16663)" />
</svg>
